<svg width="816" height="211" viewBox="0 0 816 211" fill="none" xmlns="http://www.w3.org/2000/svg">
<path d="M207.35 46.9594C200.573 59.5066 189.304 69.1035 175.746 73.8724C162.189 78.6414 147.319 78.2393 134.045 72.7448C140.822 60.1976 152.091 50.6007 165.648 45.8317C179.206 41.0627 194.076 41.4649 207.35 46.9594Z" fill="#1e1d34"/>
<path d="M44.9457 132.544C49.49 145.053 58.3539 155.577 69.9768 162.262C81.5998 168.947 95.2365 171.365 108.486 169.09C121.736 166.816 133.748 159.994 142.409 149.826C151.07 139.659 155.824 126.797 155.833 113.506V113.147C155.833 112.322 155.833 111.497 155.833 110.693V110.439C155.339 103.113 151.976 96.2664 146.457 91.3518C140.938 86.4372 133.698 83.842 126.275 84.1174C118.851 84.3927 111.828 87.5167 106.698 92.8263C101.567 98.1358 98.732 105.213 98.7949 112.554C98.7921 119.916 95.883 126.986 90.6867 132.259C85.4904 137.533 78.417 140.595 70.9714 140.794H69.3662C60.5537 140.634 52.0133 137.749 44.9457 132.544Z" fill="#1e1d34"/>
<path d="M70.1795 133.475C81.8817 133.475 91.3682 124.099 91.3682 112.533C91.3682 100.968 81.8817 91.592 70.1795 91.592C58.4773 91.592 48.9908 100.968 48.9908 112.533C48.9908 124.099 58.4773 133.475 70.1795 133.475Z" fill="#1e1d34"/>
<path d="M49.3546 197.928C26.7191 184.958 10.2057 163.652 3.43044 138.675C-3.34485 113.698 0.170035 87.0855 13.2055 64.6644C15.9308 60.019 19.0299 55.5978 22.4728 51.4438L22.6227 51.2534L66.7551 0C72.2174 4.60383 75.606 11.1632 76.176 18.2359C76.7459 25.3085 74.4504 32.3153 69.7942 37.7156L43.3191 68.4296C37.0343 76.0008 32.4056 84.7772 29.7251 94.2052C27.0445 103.633 26.3703 113.508 27.7451 123.206C29.1198 132.905 32.5136 142.216 37.7122 150.553C42.9109 158.89 49.8016 166.072 57.9495 171.645C66.0975 177.217 75.3257 181.061 85.0519 182.932C94.7781 184.803 104.791 184.661 114.459 182.516C124.127 180.37 133.24 176.267 141.223 170.466C149.207 164.665 155.886 157.291 160.841 148.811C162.806 145.426 164.489 141.889 165.871 138.234L179.547 100.159C181.988 93.5272 186.981 88.117 193.439 85.106C199.897 82.0951 207.296 81.7273 214.027 84.0827L191.233 147.668C186.188 160.934 178.282 172.956 168.065 182.9C157.847 192.844 145.563 200.472 132.064 205.253C118.565 210.035 104.176 211.857 89.8932 210.592C75.6108 209.327 61.778 205.005 49.3546 197.928Z" fill="#1e1d34"/>
<path d="M571.452 56.9436L538.771 154.247C537.242 158.797 534.302 162.757 530.368 165.562C526.434 168.368 521.706 169.879 516.854 169.879H511.61L485.692 92.6073L464.995 154.247C463.461 158.802 460.514 162.765 456.572 165.571C452.63 168.377 447.894 169.884 443.036 169.879H437.793L399.91 56.9436H407.187C412.038 56.9437 416.766 58.4539 420.7 61.2598C424.634 64.0658 427.574 68.025 429.103 72.5755L448.794 131.148L473.728 56.9012H481.005C485.867 56.9019 490.606 58.4166 494.548 61.2303C498.49 64.044 501.434 68.0137 502.964 72.5755L522.59 131.148L542.281 72.5332C543.809 67.9827 546.749 64.0235 550.683 61.2175C554.617 58.4116 559.345 56.9014 564.197 56.9012L571.452 56.9436Z" fill="#1e1d34"/>
<path d="M204.503 169.879L242.429 56.9436H247.694C252.554 56.9256 257.296 58.4253 261.243 61.2286C265.191 64.032 268.141 67.9957 269.674 72.5544L302.356 169.858H295.058C290.213 169.855 285.491 168.345 281.562 165.544C277.632 162.742 274.694 158.79 273.163 154.247L253.472 95.611L233.782 154.247C232.263 158.799 229.328 162.761 225.397 165.568C221.465 168.375 216.737 169.884 211.887 169.879H204.503Z" fill="#1e1d34"/>
<path d="M314.32 169.879V57.1128H356.462C362.084 57.0697 367.658 58.1214 372.868 60.2076C378.078 62.2939 382.822 65.374 386.827 69.272C390.833 73.17 394.023 77.8096 396.214 82.9259C398.405 88.0422 399.556 93.535 399.599 99.0907C399.643 104.646 398.579 110.156 396.468 115.305C394.357 120.455 391.241 125.143 387.297 129.101C383.353 133.06 378.658 136.213 373.481 138.379C368.305 140.544 362.747 141.681 357.126 141.724H351.946V123.998C351.946 123.383 352.069 122.773 352.308 122.204C352.547 121.636 352.898 121.12 353.339 120.685C353.781 120.251 354.305 119.907 354.881 119.673C355.457 119.439 356.075 119.321 356.698 119.323C361.813 119.364 366.757 117.5 370.544 114.102C374.332 110.703 376.686 106.02 377.137 100.984C377.343 98.2608 376.979 95.525 376.067 92.9473C375.155 90.3697 373.715 88.0055 371.837 86.0026C369.959 83.9997 367.683 82.401 365.152 81.3063C362.621 80.2117 359.889 79.6446 357.126 79.6406H337.05V147.33C337.058 150.286 336.477 153.215 335.339 155.949C334.2 158.683 332.528 161.169 330.417 163.263C328.305 165.357 325.797 167.02 323.035 168.155C320.273 169.29 317.312 169.876 314.32 169.879Z" fill="#1e1d34"/>
<path d="M583.224 57.1128V147.414C583.224 150.365 583.812 153.286 584.954 156.011C586.096 158.737 587.771 161.213 589.881 163.299C591.992 165.385 594.498 167.04 597.255 168.169C600.013 169.298 602.969 169.879 605.954 169.879V79.6406C605.962 76.6852 605.38 73.7572 604.242 71.0244C603.103 68.2915 601.431 65.8076 599.319 63.7149C597.208 61.6221 594.699 59.9617 591.937 58.8288C589.175 57.6959 586.214 57.1128 583.224 57.1128Z" fill="#1e1d34"/>
<path d="M758.983 79.6406V102.295H804.293C804.296 105.248 803.71 108.173 802.569 110.902C801.428 113.631 799.755 116.111 797.644 118.201C795.534 120.291 793.027 121.95 790.268 123.082C787.509 124.215 784.551 124.799 781.563 124.802H758.983V147.414H816C815.994 153.371 813.598 159.081 809.336 163.293C805.075 167.505 799.297 169.873 793.27 169.879H736.253V57.1128H816C815.994 63.069 813.598 68.7796 809.336 72.9913C805.075 77.203 799.297 79.5715 793.27 79.5771L758.983 79.6406Z" fill="#1e1d34"/>
<path d="M719.88 57.1128V169.879H708.986C705.332 169.88 701.73 169.01 698.489 167.342C695.247 165.674 692.46 163.257 690.366 160.297L645.057 96.3302V147.414C645.051 153.371 642.654 159.081 638.393 163.293C634.131 167.505 628.353 169.873 622.327 169.879V57.1128H633.221C636.875 57.1147 640.475 57.9865 643.716 59.6544C646.957 61.3223 649.744 63.7373 651.841 66.695L697.151 130.725V79.6406C697.139 76.6844 697.719 73.7552 698.857 71.0211C699.994 68.287 701.667 65.8019 703.779 63.7086C705.891 61.6153 708.401 59.9551 711.164 58.8231C713.927 57.6912 716.889 57.11 719.88 57.1128Z" fill="#1e1d34"/>
</svg>
