<svg width="144" height="144" viewBox="0 0 144 144" fill="none" xmlns="http://www.w3.org/2000/svg">
<path d="M122.785 122.096C150.673 94.2081 150.673 48.9929 122.785 21.105C94.8969 -6.78291 49.6817 -6.78291 21.7938 21.105C-6.09406 48.9929 -6.09406 94.2081 21.7938 122.096C49.6817 149.984 94.8969 149.984 122.785 122.096Z" fill="#1E1D34"/>
<path d="M115.954 48.7954C113.87 52.7005 110.764 55.9659 106.968 58.2424C103.171 60.5189 98.8279 61.7209 94.4015 61.7199C91.1541 61.7284 87.9386 61.0794 84.9487 59.8121C87.8134 54.459 92.5692 50.3647 98.2888 48.3279C104.008 46.2911 110.282 46.4577 115.885 48.7954H115.954Z" fill="white"/>
<path d="M47.2578 85.4205C49.184 90.7751 52.9382 95.2782 57.8589 98.1364C62.7796 100.995 68.5511 102.024 74.1567 101.045C79.7623 100.065 84.8422 97.1382 88.5016 92.7803C92.161 88.4225 94.1651 82.9129 94.1607 77.2224V77.0677C94.1607 76.7239 94.1607 76.3802 94.1607 76.0365V75.9162C94.0377 72.7254 92.6521 69.7142 90.3089 67.545C87.9656 65.3758 84.8567 64.2263 81.6659 64.3494C78.4751 64.4725 75.4639 65.858 73.2948 68.2013C71.1256 70.5445 69.9761 73.6535 70.0991 76.8443C70.1001 79.985 68.8727 83.0017 66.6793 85.2497C64.4859 87.4977 61.5004 88.7988 58.3605 88.8751H57.673C53.9238 88.8511 50.2782 87.6419 47.2578 85.4205Z" fill="white"/>
<path d="M48.9419 76.8614C48.9419 78.6358 49.4681 80.3704 50.4539 81.8458C51.4397 83.3211 52.8408 84.471 54.4802 85.1501C56.1195 85.8291 57.9234 86.0068 59.6637 85.6606C61.404 85.3144 63.0026 84.46 64.2573 83.2053C65.512 81.9506 66.3664 80.352 66.7126 78.6117C67.0588 76.8714 66.8811 75.0675 66.202 73.4282C65.523 71.7888 64.3731 70.3877 62.8977 69.4019C61.4224 68.4161 59.6878 67.8899 57.9134 67.8899C55.534 67.8899 53.2521 68.8351 51.5696 70.5176C49.8871 72.2001 48.9419 74.482 48.9419 76.8614Z" fill="white"/>
<path d="M49.1144 113.401C39.5281 107.854 32.5336 98.7313 29.6659 88.0338C26.7982 77.3363 28.2915 65.9381 33.8181 56.3403C34.9711 54.3484 36.2815 52.4518 37.7367 50.6686L56.4704 28.6866C57.6148 29.6616 58.5561 30.8524 59.2402 32.1911C59.9244 33.5298 60.3382 34.9902 60.4579 36.4889C60.5776 37.9875 60.4009 39.4951 59.9379 40.9254C59.4749 42.3558 58.7346 43.6809 57.7594 44.8251L46.5536 57.973C45.5055 59.2585 44.5628 60.6264 43.7349 62.0635C39.884 69.0205 38.9188 77.2115 41.047 84.8731C43.1752 92.5347 48.2266 99.0543 55.1139 103.029C62.0012 107.003 70.1736 108.114 77.8719 106.122C85.5702 104.131 92.1788 99.1965 96.2751 92.3811C97.1025 90.9503 97.8151 89.456 98.4063 87.9126L104.181 71.6366C105.213 68.7885 107.332 66.4657 110.074 65.1771C112.815 63.8885 115.956 63.7392 118.807 64.7619L109.131 91.8827C106.999 97.5625 103.656 102.71 99.3344 106.968C95.0129 111.226 89.8163 114.492 84.1055 116.539C78.3947 118.587 72.3066 119.367 66.2642 118.825C60.2217 118.283 54.3696 116.432 49.1144 113.401Z" fill="white"/>
</svg>
