<svg width="343" height="336" viewBox="0 0 343 336" fill="none" xmlns="http://www.w3.org/2000/svg">
<path d="M330.794 74.779C319.984 94.7593 302.006 110.042 280.376 117.636C258.746 125.23 235.024 124.59 213.849 115.84C224.659 95.8597 242.638 80.5774 264.266 72.9832C285.896 65.3891 309.619 66.0294 330.794 74.779Z" fill="#39D86E"/>
<path d="M71.7043 211.065C78.9539 230.985 93.0951 247.743 111.638 258.389C130.18 269.034 151.936 272.885 173.073 269.262C194.212 265.641 213.375 254.777 227.192 238.586C241.009 222.395 248.594 201.914 248.608 180.749V180.177C248.608 178.863 248.608 177.55 248.608 176.269V175.865C247.82 164.199 242.455 153.296 233.65 145.47C224.845 137.644 213.295 133.511 201.453 133.95C189.609 134.388 178.406 139.363 170.221 147.818C162.035 156.273 157.512 167.543 157.613 179.233C157.608 190.956 152.967 202.215 144.677 210.612C136.387 219.01 125.103 223.886 113.224 224.203H110.664C96.6046 223.948 82.9796 219.354 71.7043 211.065Z" fill="#C336D8"/>
<path d="M111.961 212.548C130.63 212.548 145.764 197.617 145.764 179.199C145.764 160.783 130.63 145.853 111.961 145.853C93.2915 145.853 78.1572 160.783 78.1572 179.199C78.1572 197.617 93.2915 212.548 111.961 212.548Z" fill="#C336D8"/>
<path d="M78.7384 315.182C42.6267 294.53 16.2822 260.602 5.47323 220.828C-5.33572 181.055 0.271745 138.676 21.0678 102.973C25.4156 95.5753 30.3598 88.5349 35.8525 81.92L36.0915 81.6168L106.498 0C115.212 7.33122 120.619 17.7765 121.528 29.0392C122.437 40.3017 118.775 51.4594 111.347 60.059L69.1095 108.968C59.0831 121.025 51.6987 135.001 47.4223 150.014C43.146 165.027 42.0704 180.752 44.2635 196.195C46.4567 211.64 51.871 226.467 60.1647 239.743C68.4583 253.019 79.4515 264.456 92.4503 273.33C105.449 282.203 120.171 288.325 135.688 291.304C151.205 294.283 167.179 294.057 182.603 290.642C198.026 287.224 212.565 280.691 225.301 271.453C238.038 262.215 248.693 250.473 256.598 236.969C259.733 231.579 262.416 225.946 264.623 220.126L286.441 159.495C290.335 148.934 298.301 140.319 308.603 135.524C318.906 130.73 330.71 130.144 341.448 133.895L305.084 235.149C297.035 256.274 284.423 275.418 268.123 291.253C251.822 307.088 232.224 319.235 210.689 326.848C189.153 334.463 166.198 337.365 143.412 335.35C120.626 333.336 98.5579 326.453 78.7384 315.182Z" fill="#5B41F5"/>
</svg>
